# vtk DataFile Version 2.0
vtk file: 2D Unstructured Grid outputN8A7_grid
ASCII

DATASET UNSTRUCTURED_GRID
POINTS 6 float
 -2.50966679E-02 -2.61407235E-01 +0.00000000E+00 +4.97717803E-01 -2.61407235E-01 +0.00000000E+00
 +1.02053227E+00 -2.61407235E-01 +0.00000000E+00 -2.50966679E-02 +2.61407235E-01 +0.00000000E+00
 +4.97717803E-01 +2.61407235E-01 +0.00000000E+00 +1.02053227E+00 +2.61407235E-01 +0.00000000E+00

CELLS 2 10
4 0 1 4 3
4 1 2 5 4

CELL_TYPES 2
 9 9
CELL_DATA 2
SCALARS elemType int 1
LOOKUP_TABLE my_color
 1 1
LOOKUP_TABLE my_color 2
1.0 0.0 1.0 1.0
0.0 1.0 1.0 1.0


SCALARS debugging int 1
LOOKUP_TABLE default