# vtk DataFile Version 2.0
Polydata outputN8A7
ASCII

DATASET POLYDATA
POINTS 287 float
 +9.95435606E-01 +9.54356057E-02 +0.00000000E+00 +9.65925826E-01 +2.58819045E-01 +0.00000000E+00
 +9.95435606E-01 -9.54356057E-02 +0.00000000E+00 +9.65925826E-01 -2.58819045E-01 +0.00000000E+00
 +0.00000000E+00 +0.00000000E+00 +0.00000000E+00 +9.00000000E-01 +0.00000000E+00 +0.00000000E+00
 +5.00047367E-02 -1.33987288E-02 +0.00000000E+00 +7.12632360E-02 +1.90949265E-02 +0.00000000E+00
 +8.77174550E-02 -2.35038212E-02 +0.00000000E+00 +1.02185234E-01 +2.73804508E-02 +0.00000000E+00
 +1.16523737E-01 -3.12224411E-02 +0.00000000E+00 +1.28728919E-01 +3.44928099E-02 +0.00000000E+00
 +1.61865121E-01 -4.33716285E-02 +0.00000000E+00 +1.42446495E-01 -3.81684234E-02 +0.00000000E+00
 +1.65000000E-01 +1.32497224E-02 +0.00000000E+00 +1.48857851E-01 +3.98863409E-02 +0.00000000E+00
 +1.92386418E-01 -5.15497852E-02 +0.00000000E+00 +1.80000000E-01 -1.27310397E-02 +0.00000000E+00
 +1.95000000E-01 +1.32497224E-02 +0.00000000E+00 +1.78099543E-01 +4.77216287E-02 +0.00000000E+00
 +2.21218935E-01 -5.92754350E-02 +0.00000000E+00 +2.10000000E-01 -1.27310397E-02 +0.00000000E+00
 +2.25000000E-01 +1.32497224E-02 +0.00000000E+00 +2.06867133E-01 +5.54298812E-02 +0.00000000E+00
 +2.46882550E-01 -6.61519799E-02 +0.00000000E+00 +2.40000000E-01 -1.27310397E-02 +0.00000000E+00
 +2.55000000E-01 +1.32497224E-02 +0.00000000E+00 +2.33107176E-01 +6.24608796E-02 +0.00000000E+00
 +2.52921302E-01 +6.77700586E-02 +0.00000000E+00 +2.65901433E-01 -7.12480742E-02 +0.00000000E+00
 +2.85000000E-01 -3.87118018E-02 +0.00000000E+00 +2.70000000E-01 -1.27310397E-02 +0.00000000E+00
 +2.85000000E-01 +1.32497224E-02 +0.00000000E+00 +2.70000000E-01 +3.92304845E-02 +0.00000000E+00
 +2.82753276E-01 +7.57635119E-02 +0.00000000E+00 +2.97063553E-01 -7.95979391E-02 +0.00000000E+00
 +3.15000000E-01 -3.87118018E-02 +0.00000000E+00 +3.00000000E-01 -1.27310397E-02 +0.00000000E+00
 +3.15000000E-01 +1.32497224E-02 +0.00000000E+00 +3.00000000E-01 +3.92304845E-02 +0.00000000E+00
 +3.11555798E-01 +8.34811244E-02 +0.00000000E+00 +3.43511441E-01 -9.20436132E-02 +0.00000000E+00
 +3.23493611E-01 -8.66798518E-02 +0.00000000E+00 +3.45000000E-01 -3.87118018E-02 +0.00000000E+00
 +3.30000000E-01 -1.27310397E-02 +0.00000000E+00 +3.45000000E-01 +1.32497224E-02 +0.00000000E+00
 +3.30000000E-01 +3.92304845E-02 +0.00000000E+00 +3.37508766E-01 +9.04352013E-02 +0.00000000E+00
 +3.72966876E-01 -9.99361733E-02 +0.00000000E+00 +3.60000000E-01 -6.46925639E-02 +0.00000000E+00
 +3.75000000E-01 -3.87118018E-02 +0.00000000E+00 +3.60000000E-01 -1.27310397E-02 +0.00000000E+00
 +3.75000000E-01 +1.32497224E-02 +0.00000000E+00 +3.60000000E-01 +3.92304845E-02 +0.00000000E+00
 +3.75000000E-01 +6.52112467E-02 +0.00000000E+00 +3.56966846E-01 +9.56489780E-02 +0.00000000E+00
 +4.01749579E-01 -1.07648475E-01 +0.00000000E+00 +3.90000000E-01 -6.46925639E-02 +0.00000000E+00
 +4.05000000E-01 -3.87118018E-02 +0.00000000E+00 +3.90000000E-01 -1.27310397E-02 +0.00000000E+00
 +4.05000000E-01 +1.32497224E-02 +0.00000000E+00 +3.90000000E-01 +3.92304845E-02 +0.00000000E+00
 +4.05000000E-01 +6.52112467E-02 +0.00000000E+00 +3.87421085E-01 +1.03809167E-01 +0.00000000E+00
 +4.27879658E-01 -1.14650009E-01 +0.00000000E+00 +4.20000000E-01 -6.46925639E-02 +0.00000000E+00
 +4.35000000E-01 -3.87118018E-02 +0.00000000E+00 +4.20000000E-01 -1.27310397E-02 +0.00000000E+00
 +4.35000000E-01 +1.32497224E-02 +0.00000000E+00 +4.20000000E-01 +3.92304845E-02 +0.00000000E+00
 +4.35000000E-01 +6.52112467E-02 +0.00000000E+00 +4.16250508E-01 +1.11533987E-01 +0.00000000E+00
 +4.47565321E-01 -1.19924766E-01 +0.00000000E+00 +4.65000000E-01 -9.06733260E-02 +0.00000000E+00
 +4.50000000E-01 -6.46925639E-02 +0.00000000E+00 +4.65000000E-01 -3.87118018E-02 +0.00000000E+00
 +4.50000000E-01 -1.27310397E-02 +0.00000000E+00 +4.65000000E-01 +1.32497224E-02 +0.00000000E+00
 +4.50000000E-01 +3.92304845E-02 +0.00000000E+00 +4.65000000E-01 +6.52112467E-02 +0.00000000E+00
 +4.41941068E-01 +1.18417752E-01 +0.00000000E+00 +4.61004138E-01 +1.23525686E-01 +0.00000000E+00
 +4.76391453E-01 -1.27648705E-01 +0.00000000E+00 +4.95000000E-01 -9.06733260E-02 +0.00000000E+00
 +4.80000000E-01 -6.46925639E-02 +0.00000000E+00 +5.06000059E-01 -3.41176070E-02 +0.00000000E+00
 +5.00575285E-01 -1.07110241E-02 +0.00000000E+00 +5.00963921E-01 +1.38511765E-02 +0.00000000E+00
 +5.05170757E-01 +3.17397975E-02 +0.00000000E+00 +5.15169645E-01 +5.29510237E-02 +0.00000000E+00
 +4.80000000E-01 +9.11920088E-02 +0.00000000E+00 +4.92097901E-01 +1.31857235E-01 +0.00000000E+00
 +5.11884036E-01 -1.16572871E-01 +0.00000000E+00 +5.36123506E-01 -7.69401943E-02 +0.00000000E+00
 +5.18946025E-01 -5.85683630E-02 +0.00000000E+00 +5.29348737E-01 +7.07700438E-02 +0.00000000E+00
 +5.18560532E-01 +1.38947876E-01 +0.00000000E+00 +5.51606408E-01 -1.47802492E-01 +0.00000000E+00
 +5.32305931E-01 -1.42630944E-01 +0.00000000E+00 +5.55865463E-01 -8.97337318E-02 +0.00000000E+00
 +5.44360483E-01 +8.30917818E-02 +0.00000000E+00 +5.64457939E-01 +9.34706471E-02 +0.00000000E+00
 +5.38610730E-01 +1.44320310E-01 +0.00000000E+00 +5.82298700E-01 -1.56026466E-01 +0.00000000E+00
 +5.75514122E-01 -9.69558753E-02 +0.00000000E+00 +5.86651705E-01 +9.91051109E-02 +0.00000000E+00
 +5.68005379E-01 +1.52196583E-01 +0.00000000E+00 +6.11137101E-01 -1.63753693E-01 +0.00000000E+00
 +6.00000000E-01 -1.00000000E-01 +0.00000000E+00 +6.13348296E-01 +9.91051109E-02 +0.00000000E+00
 +5.96782890E-01 +1.59907494E-01 +0.00000000E+00 +5.02526678E-01 -1.34651617E-01 +0.00000000E+00
 +6.43571429E-01 -1.45109209E-01 +0.00000000E+00 +6.24485878E-01 -9.69558754E-02 +0.00000000E+00
 +6.44136129E-01 -8.97329488E-02 +0.00000000E+00 +6.35542095E-01 +9.34706343E-02 +0.00000000E+00
 +6.22944221E-01 +1.66917401E-01 +0.00000000E+00 +6.42664665E-01 +1.72201478E-01 +0.00000000E+00
 +6.55642314E-01 -1.75678829E-01 +0.00000000E+00 +6.75000000E-01 -1.42634850E-01 +0.00000000E+00
 +6.60000000E-01 -1.16654088E-01 +0.00000000E+00 +6.63876494E-01 -7.69401941E-02 +0.00000000E+00
 +6.55637045E-01 +8.30934365E-02 +0.00000000E+00 +6.75000000E-01 +1.17172771E-01 +0.00000000E+00
 +6.60000000E-01 +1.43153533E-01 +0.00000000E+00 +6.72662952E-01 +1.80239495E-01 +0.00000000E+00
 +6.86979704E-01 -1.84075657E-01 +0.00000000E+00 +7.05000000E-01 -1.42634850E-01 +0.00000000E+00
 +6.90000000E-01 -1.16654088E-01 +0.00000000E+00 +7.05000000E-01 -9.06733260E-02 +0.00000000E+00
 +6.81053975E-01 -5.85683632E-02 +0.00000000E+00 +6.93999941E-01 -3.41176070E-02 +0.00000000E+00
 +6.99036506E-01 +1.38481199E-02 +0.00000000E+00 +6.84830578E-01 +5.29506665E-02 +0.00000000E+00
 +6.70651263E-01 +7.07700430E-02 +0.00000000E+00 +7.05000000E-01 +1.17172771E-01 +0.00000000E+00
 +6.90000000E-01 +1.43153533E-01 +0.00000000E+00 +7.01474186E-01 +1.87959442E-01 +0.00000000E+00
 +7.33253787E-01 -1.96474760E-01 +0.00000000E+00 +7.13326911E-01 -1.91135370E-01 +0.00000000E+00
 +7.35000000E-01 -1.42634850E-01 +0.00000000E+00 +7.20000000E-01 -1.16654088E-01 +0.00000000E+00
 +7.35000000E-01 -9.06733260E-02 +0.00000000E+00 +7.20000000E-01 -6.46925639E-02 +0.00000000E+00
 +7.35000000E-01 -3.87118018E-02 +0.00000000E+00 +6.99424715E-01 -1.07110280E-02 +0.00000000E+00
 +7.35000000E-01 +1.32497224E-02 +0.00000000E+00 +6.94829231E-01 +3.17398324E-02 +0.00000000E+00
 +7.35000000E-01 +6.52112467E-02 +0.00000000E+00 +7.20000000E-01 +9.11920088E-02 +0.00000000E+00
 +7.35000000E-01 +1.17172771E-01 +0.00000000E+00 +7.20000000E-01 +1.43153533E-01 +0.00000000E+00
 +7.27353316E-01 +1.94893734E-01 +0.00000000E+00 +7.62876937E-01 -2.04412259E-01 +0.00000000E+00
 +7.50000000E-01 -1.68615612E-01 +0.00000000E+00 +7.65000000E-01 -1.42634850E-01 +0.00000000E+00
 +7.50000000E-01 -1.16654088E-01 +0.00000000E+00 +7.65000000E-01 -9.06733260E-02 +0.00000000E+00
 +7.50000000E-01 -6.46925639E-02 +0.00000000E+00 +7.65000000E-01 -3.87118018E-02 +0.00000000E+00
 +7.50000000E-01 -1.27310397E-02 +0.00000000E+00 +7.65000000E-01 +1.32497224E-02 +0.00000000E+00
 +7.50000000E-01 +3.92304845E-02 +0.00000000E+00 +7.65000000E-01 +6.52112467E-02 +0.00000000E+00
 +7.50000000E-01 +9.11920088E-02 +0.00000000E+00 +7.65000000E-01 +1.17172771E-01 +0.00000000E+00
 +7.50000000E-01 +1.43153533E-01 +0.00000000E+00 +7.65000000E-01 +1.69134295E-01 +0.00000000E+00
 +7.46709332E-01 +2.00080162E-01 +0.00000000E+00 +7.91665947E-01 -2.12126251E-01 +0.00000000E+00
 +7.80000000E-01 -1.68615612E-01 +0.00000000E+00 +7.95000000E-01 -1.42634850E-01 +0.00000000E+00
 +7.80000000E-01 -1.16654088E-01 +0.00000000E+00 +7.95000000E-01 -9.06733260E-02 +0.00000000E+00
 +7.80000000E-01 -6.46925639E-02 +0.00000000E+00 +7.95000000E-01 -3.87118018E-02 +0.00000000E+00
 +7.80000000E-01 -1.27310397E-02 +0.00000000E+00 +7.95000000E-01 +1.32497224E-02 +0.00000000E+00
 +7.80000000E-01 +3.92304845E-02 +0.00000000E+00 +7.95000000E-01 +6.52112467E-02 +0.00000000E+00
 +7.80000000E-01 +9.11920088E-02 +0.00000000E+00 +7.95000000E-01 +1.17172771E-01 +0.00000000E+00
 +7.80000000E-01 +1.43153533E-01 +0.00000000E+00 +7.95000000E-01 +1.69134295E-01 +0.00000000E+00
 +7.77334614E-01 +2.08286182E-01 +0.00000000E+00 +8.17719430E-01 -2.19107261E-01 +0.00000000E+00
 +8.10000000E-01 -1.68615612E-01 +0.00000000E+00 +8.25000000E-01 -1.42634850E-01 +0.00000000E+00
 +8.10000000E-01 -1.16654088E-01 +0.00000000E+00 +8.25000000E-01 -9.06733260E-02 +0.00000000E+00
 +8.10000000E-01 -6.46925639E-02 +0.00000000E+00 +8.25000000E-01 -3.87118018E-02 +0.00000000E+00
 +8.10000000E-01 -1.27310397E-02 +0.00000000E+00 +8.25000000E-01 +1.32497224E-02 +0.00000000E+00
 +8.10000000E-01 +3.92304845E-02 +0.00000000E+00 +8.25000000E-01 +6.52112467E-02 +0.00000000E+00
 +8.10000000E-01 +9.11920088E-02 +0.00000000E+00 +8.25000000E-01 +1.17172771E-01 +0.00000000E+00
 +8.10000000E-01 +1.43153533E-01 +0.00000000E+00 +8.25000000E-01 +1.69134295E-01 +0.00000000E+00
 +8.06170128E-01 +2.16012635E-01 +0.00000000E+00 +8.37311180E-01 -2.24356855E-01 +0.00000000E+00
 +8.55000000E-01 -1.94596375E-01 +0.00000000E+00 +8.40000000E-01 -1.68615612E-01 +0.00000000E+00
 +8.55000000E-01 -1.42634850E-01 +0.00000000E+00 +8.40000000E-01 -1.16654088E-01 +0.00000000E+00
 +8.55000000E-01 -9.06733260E-02 +0.00000000E+00 +8.40000000E-01 -6.46925639E-02 +0.00000000E+00
 +8.55000000E-01 -3.87118018E-02 +0.00000000E+00 +8.40000000E-01 -1.27310397E-02 +0.00000000E+00
 +8.55000000E-01 +1.32497224E-02 +0.00000000E+00 +8.40000000E-01 +3.92304845E-02 +0.00000000E+00
 +8.55000000E-01 +6.52112467E-02 +0.00000000E+00 +8.40000000E-01 +9.11920088E-02 +0.00000000E+00
 +8.55000000E-01 +1.17172771E-01 +0.00000000E+00 +8.40000000E-01 +1.43153533E-01 +0.00000000E+00
 +8.55000000E-01 +1.69134295E-01 +0.00000000E+00 +8.31795154E-01 +2.22878840E-01 +0.00000000E+00
 +8.50744307E-01 +2.27956250E-01 +0.00000000E+00 +8.67539436E-01 -2.32456491E-01 +0.00000000E+00
 +8.85000000E-01 -1.94596375E-01 +0.00000000E+00 +8.70000000E-01 -1.68615612E-01 +0.00000000E+00
 +8.85000000E-01 -1.42634850E-01 +0.00000000E+00 +8.70000000E-01 -1.16654088E-01 +0.00000000E+00
 +8.85000000E-01 -9.06733260E-02 +0.00000000E+00 +8.70000000E-01 -6.46925639E-02 +0.00000000E+00
 +8.85000000E-01 -3.87118018E-02 +0.00000000E+00 +8.69972283E-01 -1.27465315E-02 +0.00000000E+00
 +8.84064529E-01 +1.45461781E-02 +0.00000000E+00 +8.70000000E-01 +3.92304845E-02 +0.00000000E+00
 +8.85000000E-01 +6.52112467E-02 +0.00000000E+00 +8.70000000E-01 +9.11920088E-02 +0.00000000E+00
 +8.85000000E-01 +1.17172771E-01 +0.00000000E+00 +8.70000000E-01 +1.43153533E-01 +0.00000000E+00
 +8.85000000E-01 +1.69134295E-01 +0.00000000E+00 +8.70000000E-01 +1.95115057E-01 +0.00000000E+00
 +8.82013847E-01 +2.36334898E-01 +0.00000000E+00 +8.96358963E-01 -2.40178660E-01 +0.00000000E+00
 +9.15000000E-01 -1.94596375E-01 +0.00000000E+00 +9.00000000E-01 -1.68615612E-01 +0.00000000E+00
 +9.15000000E-01 -1.42634850E-01 +0.00000000E+00 +9.00000000E-01 -1.16654088E-01 +0.00000000E+00
 +9.15000000E-01 -9.06733260E-02 +0.00000000E+00 +9.00000000E-01 -6.46925639E-02 +0.00000000E+00
 +9.27704709E-01 -2.77047090E-02 +0.00000000E+00 +9.08146136E-01 -8.14613650E-03 +0.00000000E+00
 +9.01031341E-01 +3.75293188E-02 +0.00000000E+00 +9.15000000E-01 +6.52112467E-02 +0.00000000E+00
 +9.00000000E-01 +9.11920088E-02 +0.00000000E+00 +9.15000000E-01 +1.17172771E-01 +0.00000000E+00
 +9.00000000E-01 +1.43153533E-01 +0.00000000E+00 +9.15000000E-01 +1.69134295E-01 +0.00000000E+00
 +9.00000000E-01 +1.95115057E-01 +0.00000000E+00 +9.08393228E-01 +2.43403232E-01 +0.00000000E+00
 +9.40682144E-01 -2.52055021E-01 +0.00000000E+00 +9.22139865E-01 -2.47086632E-01 +0.00000000E+00
 +9.45000000E-01 -1.94596375E-01 +0.00000000E+00 +9.30000000E-01 -1.68615612E-01 +0.00000000E+00
 +9.45000000E-01 -1.42634850E-01 +0.00000000E+00 +9.30000000E-01 -1.16654088E-01 +0.00000000E+00
 +9.45000000E-01 -9.06733260E-02 +0.00000000E+00 +9.46882144E-01 -4.68821445E-02 +0.00000000E+00
 +9.33296275E-01 +3.32962746E-02 +0.00000000E+00 +9.55762190E-01 +5.57621898E-02 +0.00000000E+00
 +9.30000000E-01 +9.11920088E-02 +0.00000000E+00 +9.45000000E-01 +1.17172771E-01 +0.00000000E+00
 +9.30000000E-01 +1.43153533E-01 +0.00000000E+00 +9.45000000E-01 +1.69134295E-01 +0.00000000E+00
 +9.30000000E-01 +1.95115057E-01 +0.00000000E+00 +9.45000000E-01 +2.21095819E-01 +0.00000000E+00
 +9.28358861E-01 +2.48753007E-01 +0.00000000E+00 +9.74434578E-01 -2.24671435E-01 +0.00000000E+00
 +9.80913202E-01 -1.94446111E-01 +0.00000000E+00 +9.85001790E-01 -1.72544124E-01 +0.00000000E+00
 +9.89251972E-01 -1.46220848E-01 +0.00000000E+00 +9.60000000E-01 -1.16654088E-01 +0.00000000E+00
 +9.81960070E-01 -8.19600702E-02 +0.00000000E+00 +9.61349780E-01 -6.13497797E-02 +0.00000000E+00
 +9.75203485E-01 +7.52034845E-02 +0.00000000E+00 +9.92561649E-01 +1.21743060E-01 +0.00000000E+00
 +9.89127640E-01 +1.47059553E-01 +0.00000000E+00 +9.85581159E-01 +1.69203365E-01 +0.00000000E+00
 +9.80035605E-01 +1.98822062E-01 +0.00000000E+00 +9.75370893E-01 +2.20571126E-01 +0.00000000E+00
 +9.69166467E-01 +2.46406900E-01 +0.00000000E+00 +9.92965110E-01 -1.18407305E-01 +0.00000000E+00
 +9.86749959E-01 +8.67499587E-02 +0.00000000E+00

POLYGONS 2 123
94 0 279 280 281 282 283 284 1 270 253 236 218 217 200 184 168 152 137 125 117 116 110 106 102 96 91 81 80 71 63 55 47 40 34 28 27 23 19 15 11 9 7 4 6 8 10 13 12 16 20 24 29 35 42 41 48 56 64 72 82 111 98 97 103 107 118 126 139 138 153 169 185 201 219 237 255 254 3 271 272 273 274 285 2 276 277 261 244 245 5 262 263 278 286
27 85 86 87 88 89 95 100 101 105 109 115 122 134 133 147 132 145 131 130 121 114 113 108 104 99 93 94
